<svg xmlns="http://www.w3.org/2000/svg" width="77" height="76.983" viewBox="0 0 77 76.983">
  <path id="Icon_awesome-instagram" data-name="Icon awesome-instagram" d="M38.5,20.992A19.737,19.737,0,1,0,58.241,40.729,19.706,19.706,0,0,0,38.5,20.992Zm0,32.569A12.832,12.832,0,1,1,51.335,40.729,12.855,12.855,0,0,1,38.5,53.561ZM63.652,20.184a4.6,4.6,0,1,1-4.6-4.6A4.593,4.593,0,0,1,63.652,20.184Zm13.072,4.672c-.292-6.167-1.7-11.629-6.218-16.13-4.5-4.5-9.963-5.909-16.13-6.218-6.356-.361-25.406-.361-31.762,0-6.15.292-11.612,1.7-16.13,6.2S.574,18.673.265,24.84C-.1,31.2-.1,50.246.265,56.6c.292,6.167,1.7,11.629,6.218,16.13s9.963,5.909,16.13,6.218c6.356.361,25.406.361,31.762,0,6.167-.292,11.629-1.7,16.13-6.218,4.5-4.5,5.909-9.963,6.218-16.13.361-6.356.361-25.389,0-31.745ZM68.513,63.421A12.991,12.991,0,0,1,61.2,70.739C56.128,72.749,44.1,72.285,38.5,72.285s-17.642.447-22.692-1.546a12.991,12.991,0,0,1-7.318-7.318c-2.01-5.067-1.546-17.092-1.546-22.692S6.5,23.087,8.494,18.037a12.991,12.991,0,0,1,7.318-7.318C20.879,8.709,32.9,9.173,38.5,9.173S56.145,8.727,61.2,10.719a12.991,12.991,0,0,1,7.318,7.318c2.01,5.067,1.546,17.092,1.546,22.692S70.523,58.371,68.513,63.421Z" transform="translate(0.005 -2.238)" fill="#eee"/>
</svg>
