<svg xmlns="http://www.w3.org/2000/svg" width="73.137" height="73.135" viewBox="0 0 73.137 73.135">
  <path id="Icon_awesome-linkedin-in" data-name="Icon awesome-linkedin-in" d="M16.371,73.136H1.208V24.307H16.371ZM8.781,17.647a8.823,8.823,0,1,1,8.781-8.865A8.855,8.855,0,0,1,8.781,17.647ZM73.121,73.136H57.99V49.366c0-5.665-.114-12.93-7.883-12.93-7.883,0-9.091,6.155-9.091,12.521V73.136H25.869V24.307H40.411v6.661h.212c2.024-3.836,6.969-7.885,14.347-7.885,15.346,0,18.167,10.105,18.167,23.231V73.136Z" transform="translate(0 0)" fill="#eee"/>
</svg>
